<svg width="180" height="180" viewBox="0 0 180 180" fill="none" xmlns="http://www.w3.org/2000/svg">
<rect width="180" height="180" fill="#E6F3FA"/>
<path d="M90 52.68C97.3575 52.68 104.55 54.8617 110.667 58.9493C116.785 63.0369 121.553 68.8467 124.368 75.6441C127.184 82.4415 127.921 89.9212 126.485 97.1373C125.05 104.353 121.507 110.982 116.304 116.184C111.102 121.387 104.474 124.93 97.2574 126.365C90.0413 127.801 82.5617 127.064 75.7643 124.248C68.9669 121.433 63.1571 116.665 59.0695 110.547C54.9819 104.43 52.8002 97.2374 52.8002 89.8799C52.8081 80.0163 56.7298 70.559 63.7045 63.5844C70.6791 56.6097 80.1364 52.6879 90 52.68ZM90 30C78.1332 30 66.5328 33.5189 56.6659 40.1118C46.7989 46.7047 39.1085 56.0755 34.5673 67.039C30.026 78.0026 28.8378 90.0666 31.1529 101.705C33.468 113.344 39.1825 124.035 47.5736 132.426C55.9648 140.818 66.6558 146.532 78.2947 148.847C89.9335 151.162 101.998 149.974 112.961 145.433C123.925 140.891 133.295 133.201 139.888 123.334C146.481 113.467 150 101.867 150 90C150 74.087 143.679 58.8258 132.426 47.5736C121.174 36.3215 105.913 30 90 30Z" fill="#0272B4"/>
</svg>
