<?xml version="1.0"?>

<svg version="1.1" id="Layer_1" xmlns="http://www.w3.org/2000/svg" xmlns:xlink="http://www.w3.org/1999/xlink" x="0px" y="0px" viewBox="0 0 800 126" style="enable-background:new 0 0 800 126;" xml:space="preserve">

<g>
&#x9;<g>
&#x9;&#x9;<g>
&#x9;&#x9;&#x9;<path fill="#FFFFFF" d="M0.2,124l35.6-78.1c0.4-0.7,1.4-1.3,2-1.3H39c0.6,0,1.6,0.6,2,1.3L76.4,124c0.7,1.5-0.2,3-2,3h-7.3&#xA;&#x9;&#x9;&#x9;&#x9;c-1.4,0-2.2-0.7-2.7-1.7l-7.2-15.9H19.3c-2.3,5.3-4.8,10.6-7.1,15.9c-0.4,0.8-1.3,1.7-2.7,1.7H2.2C0.5,127-0.5,125.6,0.2,124&#xA;&#x9;&#x9;&#x9;&#x9; M52.8,99.4L38.5,67.6H38L23.8,99.4H52.8z"></path>
&#x9;&#x9;&#x9;<path fill="#FFFFFF" d="M107.6,48c0-1.2,0.9-2.2,2.2-2.2h26.5c14.3,0,26,11.6,26,25.6c0,14.4-11.7,26.1-25.9,26.1h-16.8v27.3&#xA;&#x9;&#x9;&#x9;&#x9;c0,1.2-1,2.2-2.2,2.2h-7.5c-1.3,0-2.2-1-2.2-2.2V48z M135.6,86.2c8,0,14.7-6.5,14.7-14.9c0-7.9-6.7-13.9-14.7-13.9h-16v28.8&#xA;&#x9;&#x9;&#x9;&#x9;H135.6z"></path>
&#x9;&#x9;&#x9;<path fill="#FFFFFF" d="M199.8,48c0-1.2,0.9-2.2,2.2-2.2h26.5c14.3,0,26,11.6,26,25.6c0,14.4-11.7,26.1-25.9,26.1h-16.8v27.3&#xA;&#x9;&#x9;&#x9;&#x9;c0,1.2-1.1,2.2-2.2,2.2H202c-1.3,0-2.2-1-2.2-2.2V48z M227.8,86.2c8,0,14.7-6.5,14.7-14.9c0-7.9-6.7-13.9-14.7-13.9h-16v28.8&#xA;&#x9;&#x9;&#x9;&#x9;H227.8z"></path>
&#x9;&#x9;&#x9;<path fill="#FFFFFF" d="M292.1,48c0-1.2,0.9-2.2,2.2-2.2h7.7c1.2,0,2.2,1,2.2,2.2v68.3h31.5c1.3,0,2.2,1,2.2,2.2v6.4&#xA;&#x9;&#x9;&#x9;&#x9;c0,1.2-0.9,2.2-2.2,2.2h-41.3c-1.3,0-2.2-1-2.2-2.2V48z"></path>
&#x9;&#x9;&#x9;<path fill="#FFFFFF" d="M363.8,124l35.6-78.1c0.4-0.7,1.4-1.3,2-1.3h1.2c0.6,0,1.6,0.6,2,1.3L440,124c0.7,1.5-0.2,3-2,3h-7.3&#xA;&#x9;&#x9;&#x9;&#x9;c-1.4,0-2.2-0.7-2.7-1.7l-7.2-15.9h-38c-2.3,5.3-4.8,10.6-7.1,15.9c-0.4,0.8-1.3,1.7-2.7,1.7h-7.3&#xA;&#x9;&#x9;&#x9;&#x9;C364.1,127,363.1,125.6,363.8,124 M416.4,99.4l-14.3-31.8h-0.6l-14.2,31.8H416.4z"></path>
&#x9;&#x9;&#x9;<path fill="#FFFFFF" d="M467.7,48c0-1.2,1-2.2,2.2-2.2h7.8c1.3,0,2.2,1,2.2,2.2v48c0,11.6,7.4,20.7,19.3,20.7&#xA;&#x9;&#x9;&#x9;&#x9;c12,0,19.5-8.9,19.5-20.4V48c0-1.2,0.9-2.2,2.2-2.2h7.8c1.2,0,2.2,1,2.2,2.2v48.8c0,17.6-13.4,31.5-31.7,31.5&#xA;&#x9;&#x9;&#x9;&#x9;c-18.2,0-31.5-13.8-31.5-31.5V48z"></path>
&#x9;&#x9;&#x9;<path fill="#FFFFFF" d="M570.4,115.3c1-1.5,2-3.2,3-4.8s2.7-2,3.9-0.9c0.7,0.6,9.6,8,18.6,8c8,0,13.1-4.9,13.1-10.8&#xA;&#x9;&#x9;&#x9;&#x9;c0-7-6-11.4-17.5-16.1c-11.8-5-21.1-11.2-21.1-24.6c0-9,7-21.5,25.4-21.5c11.6,0,20.3,6,21.5,6.9c0.9,0.6,1.9,2.2,0.7,3.9&#xA;&#x9;&#x9;&#x9;&#x9;c-0.9,1.4-2,3-2.9,4.4c-0.9,1.5-2.4,2.2-4.1,1.1c-0.8-0.4-8.9-5.8-15.7-5.8c-9.8,0-13.1,6.2-13.1,10.5c0,6.6,5.1,10.7,14.7,14.6&#xA;&#x9;&#x9;&#x9;&#x9;c13.5,5.4,25,11.8,25,26c0,12.1-10.8,21.9-25.9,21.9c-14.2,0-23.1-7.4-25-9.2C570,118.1,569.2,117.3,570.4,115.3"></path>
&#x9;&#x9;&#x9;<path fill="#FFFFFF" d="M661.2,48c0-1.2,0.9-2.2,2.2-2.2h46.4c1.3,0,2.2,1,2.2,2.2v6.5c0,1.2-0.9,2.2-2.2,2.2h-36.7v23.7h31&#xA;&#x9;&#x9;&#x9;&#x9;c1.2,0,2.2,1,2.2,2.2v6.5c0,1.3-1,2.2-2.2,2.2h-31v24.9h36.7c1.3,0,2.2,1,2.2,2.2v6.4c0,1.2-0.9,2.2-2.2,2.2h-46.4&#xA;&#x9;&#x9;&#x9;&#x9;c-1.3,0-2.2-1-2.2-2.2V48z"></path>
&#x9;&#x9;</g>
&#x9;&#x9;<path fill="#FFFFFF" d="M772.3,11.5c9.5,0,17.2,7.7,17.2,17.2c0,9.5-7.7,17.2-17.2,17.2c-9.5,0-17.2-7.7-17.2-17.2&#xA;&#x9;&#x9;&#x9;C755.1,19.3,762.8,11.5,772.3,11.5 M772.3,1.1c-15.3,0-27.7,12.4-27.7,27.7c0,15.3,12.4,27.7,27.7,27.7&#xA;&#x9;&#x9;&#x9;c15.3,0,27.7-12.4,27.7-27.7C800,13.5,787.6,1.1,772.3,1.1L772.3,1.1z"></path>
&#x9;</g>
</g>
</svg>